.
..............................Site Info...........................

 -   http://www.scenetime.com  *_*   

Good news ! SceneTime will open sign up on Easter day for one day . Its a good chance to get on on Easter day .

Scenetime .Always on time . friendly online private torrent community ..

     We care to share . Join us on  http://www.scenetime.com 

    Be the first to get new release at  http://www.scenetime.com

        Seed back for speed


...................................NFO:.................................................[IMG]http://i.imgur.com/qD9lu.gif[/IMG]

 
TITLE: 

Trinity Goodheart 2011 DVDRiP AC3 XViD - INSPiRAL

IMDB: 
 
http://www.imdb.com/title/tt1849899/


SOURCES:

VIDEO -  THANKS M8
AUDIO -  THANKS M8
SUBS  - None Add

STATS:

Video
ID                                       : 0
Format                                   : MPEG-4 Visual
Format profile                           : Advanced Simple@L5
Format settings, BVOP                    : 2
Format settings, QPel                    : No
Format settings, GMC                     : No warppoints
Format settings, Matrix                  : Default (MPEG)
Muxing mode                              : Packed bitstream
Codec ID                                 : XVID
Codec ID/Hint                            : XviD
Duration                                 : 1h 30mn
Bit rate                                 : 1 720 Kbps
Width                                    : 720 pixels
Height                                   : 400 pixels
Display aspect ratio                     : 16:9
Frame rate                               : 23.976 fps
Color space                              : YUV
Chroma subsampling                       : 4:2:0
Bit depth                                : 8 bits
Scan type                                : Progressive
Compression mode                         : Lossy
Bits/(Pixel*Frame)                       : 0.249
Stream size                              : 1.09 GiB (79%)
Writing library                          : XviD 64

Audio
ID                                       : 1
Format                                   : AC-3
Format/Info                              : Audio Coding 3
Mode extension                           : CM (complete main)
Codec ID                                 : 2000
Duration                                 : 1h 30mn
Bit rate mode                            : Constant
Bit rate                                 : 448 Kbps
Channel(s)                               : 6 channels
Channel positions                        : Front: L C R, Side: L R, LFE
Sampling rate                            : 48.0 KHz
Bit depth                                : 16 bits
Compression mode                         : Lossy
Stream size                              : 290 MiB (21%)
Alignment                                : Aligned on interleaves
Interleave, duration                     : 42 ms (1.00 video frame)
Interleave, preload duration             : 512 ms


NOTES:

Nothing fancy done just a straight forward rip done and done properly .....Remuxed the original audio track too our encode.


SCREENS:


GREETZ: 

Past,Present and Future

[IMG]http://i.imgur.com/qD9lu.gif[/IMG]